<svg version="1.1" width="700" height="500" xmlns="http://www.w3.org/2000/svg">
    <path d="M0 0 l600 0 l0 300 l-1000 0 z" id="fondo"/>
    <rect width="400" height="20"  x="0" y="50" fill="green" stroke-width="3" stroke="black"></rect>
    <rect width="400" height="20"  x="0" y="90" fill="green" stroke-width="3" stroke="black"></rect>
    <rect width="400" height="20"  x="0" y="130" fill="green" stroke-width="3" stroke="black"></rect>
    <rect width="400" height="20"  x="0" y="170" fill="green" stroke-width="3" stroke="black"></rect>
    <rect width="400" height="20"  x="0" y="210" fill="green" stroke-width="3" stroke="black"></rect>
    <rect width="60" height="220"  x="30" y="30" fill="blue" stroke-width="3" stroke="black"></rect>
    <rect width="60" height="20"  x="30" y="50" fill="red" stroke-width="3" stroke="black"></rect>
    <rect width="60" height="20"  x="30" y="90" fill="red" stroke-width="3" stroke="black"></rect>
    <rect width="60" height="20"  x="30" y="130" fill="red" stroke-width="3" stroke="black"></rect>
    <rect width="60" height="20"  x="30" y="170" fill="red" stroke-width="3" stroke="black"></rect>
    <rect width="60" height="20"  x="30" y="210" fill="red" stroke-width="3" stroke="black"></rect>
    <rect width="60" height="220"  x="120" y="30" fill="blue" stroke-width="3" stroke="black"></rect>
    <rect width="60" height="20"  x="120" y="50" fill="red" stroke-width="3" stroke="black"></rect>
    <rect width="60" height="20"  x="120" y="90" fill="red" stroke-width="3" stroke="black"></rect>
    <rect width="60" height="20"  x="120" y="130" fill="red" stroke-width="3" stroke="black"></rect>
    <rect width="60" height="20"  x="120" y="170" fill="red" stroke-width="3" stroke="black"></rect>
    <rect width="60" height="20"  x="120" y="210" fill="red" stroke-width="3" stroke="black"></rect>
    <rect width="60" height="220"  x="210" y="30" fill="blue" stroke-width="3" stroke="black"></rect>
    <rect width="60" height="20"  x="210" y="50" fill="red" stroke-width="3" stroke="black"></rect>
    <rect width="60" height="20"  x="210" y="90" fill="red" stroke-width="3" stroke="black"></rect>
    <rect width="60" height="20"  x="210" y="130" fill="red" stroke-width="3" stroke="black"></rect>
    <rect width="60" height="20"  x="210" y="170" fill="red" stroke-width="3" stroke="black"></rect>
    <rect width="60" height="20"  x="210" y="210" fill="red" stroke-width="3" stroke="black"></rect>
    <rect width="60" height="220"  x="300" y="30" fill="blue" stroke-width="3" stroke="black"></rect>
    <rect width="60" height="20"  x="300" y="50" fill="red" stroke-width="3" stroke="black"></rect>
    <rect width="60" height="20"  x="300" y="90" fill="red" stroke-width="3" stroke="black"></rect>
    <rect width="60" height="20"  x="300" y="130" fill="red" stroke-width="3" stroke="black"></rect>
    <rect width="60" height="20"  x="300" y="170" fill="red" stroke-width="3" stroke="black"></rect>
    <rect width="60" height="20"  x="300" y="210" fill="red" stroke-width="3" stroke="black"></rect>
    <text x="410" y="65" fill="red">VISTA</text>
    <text x="410" y="105" fill="red">VISTA</text>
    <text x="410" y="145" fill="red">CONTROLADOR</text>
    <text x="410" y="185" fill="red">CONTROLADOR</text>
    <text x="410" y="225" fill="red">MODELO</text>
    <text x="160" y="15" fill="red">CASOS DE USO</text>
</svg>