<svg version="1.1" width="700" height="500" xmlns="http://www.w3.org/2000/svg">
    <rect x="0" y="0" width="550" height="280" fill="black" id="fondo"/>
    <text x="160" y="15" fill="red">CASOS DE USO</text>
    <text x="410" y="65" fill="red">VISTA</text>
    <rect width="400" height="20"  x="0" y="50" stroke="black" stroke-width="3" fill="green"></rect>
    <rect width="400" height="20"  x="0" y="90" stroke="black" stroke-width="3" fill="green"></rect>
    <rect width="400" height="20"  x="0" y="130" stroke="black" stroke-width="3" fill="green"></rect>
    <rect width="400" height="20"  x="0" y="170" stroke="black" stroke-width="3" fill="green"></rect>
    <rect width="400" height="20"  x="0" y="210" stroke="black" stroke-width="3" fill="green"></rect>
 
    <text x="410" y="105" fill="red">VISTA</text>
    <rect width="60" height="220"  x="30" y="30" stroke="black" stroke-width="3" fill="blue"></rect>
    <rect width="60" height="20"  x="30" y="50" stroke="black" stroke-width="3" fill="red"></rect>
    <rect width="60" height="20"  x="30" y="90" stroke="black" stroke-width="3" fill="red"></rect>
    <rect width="60" height="20"  x="30" y="130" stroke="black" stroke-width="3" fill="red"></rect>
    <rect width="60" height="20"  x="30" y="170" stroke="black" stroke-width="3" fill="red"></rect>
    <rect width="60" height="20"  x="30" y="210" stroke="black" stroke-width="3" fill="red"></rect>

    <text x="410" y="145" fill="red">CONTROLADOR</text>
    <rect width="60" height="220"  x="120" y="30" stroke="black" stroke-width="3" fill="blue"></rect>
    <rect width="60" height="20"  x="120" y="50" stroke="black" stroke-width="3" fill="red"></rect>
    <rect width="60" height="20"  x="120" y="90" stroke="black" stroke-width="3" fill="red"></rect>
    <rect width="60" height="20"  x="120" y="130" stroke="black" stroke-width="3" fill="red"></rect>
    <rect width="60" height="20"  x="120" y="170" stroke="black" stroke-width="3" fill="red"></rect>
    <rect width="60" height="20"  x="120" y="210" stroke="black" stroke-width="3" fill="red"></rect>
    
    <text x="410" y="185" fill="red">CONTROLADOR</text>   
    <rect width="60" height="220"  x="210" y="30" stroke="black" stroke-width="3" fill="blue"></rect>
    <rect width="60" height="20"  x="210" y="50" stroke="black" stroke-width="3" fill="red"></rect>
    <rect width="60" height="20"  x="210" y="90" stroke="black" stroke-width="3" fill="red"></rect>
    <rect width="60" height="20"  x="210" y="130" stroke="black" stroke-width="3" fill="red"></rect>
    <rect width="60" height="20"  x="210" y="170" stroke="black" stroke-width="3" fill="red"></rect>
    <rect width="60" height="20"  x="210" y="210" stroke="black" stroke-width="3" fill="red"></rect>

    <text x="410" y="225" fill="red">MODELO</text>
    <rect width="60" height="220" x="300" y="30" stroke="black" stroke-width="3" fill="blue"></rect>
    <rect width="60" height="20" x="300" y="50" stroke="black" stroke-width="3" fill="red"></rect>
    <rect width="60" height="20" x="300" y="90" stroke="black" stroke-width="3" fill="red"></rect>
    <rect width="60" height="20" x="300" y="130" stroke="black" stroke-width="3" fill="red"></rect>
    <rect width="60" height="20" x="300" y="170" stroke="black" stroke-width="3" fill="red"></rect>
    <rect width="60" height="20" x="300" y="210" stroke="black" stroke-width="3" fill="red"></rect>

</svg>