<?xml version="1.0" encoding="UTF-8" standalone="no"?>
<svg xmlns="http://www.w3.org/2000/svg" xmlns:xlink="http://www.w3.org/1999/xlink" contentScriptType="application/ecmascript" contentStyleType="text/css" height="177px" preserveAspectRatio="none" style="width:61px;height:177px;background:#FFFFFF;" version="1.1" viewBox="0 0 61 177" width="61px" zoomAndPan="magnify">
  <defs>
    <filter height="300%" id="fp7dsjjako3z0" width="300%" x="-1" y="-1">
      <feGaussianBlur result="blurOut" stdDeviation="2.0" />
      <feColorMatrix in="blurOut" result="blurOut2" type="matrix" values="0 0 0 0 0 0 0 0 0 0 0 0 0 0 0 0 0 0 .4 0" />
      <feOffset dx="4.0" dy="4.0" in="blurOut2" result="blurOut3" />
      <feBlend in="SourceGraphic" in2="blurOut3" mode="normal" />
    </filter>
  </defs>
  <g> <!--MD5=[b203f6b098b8dffe494a95d9c500f8e2]
  class X-->
    <rect codeLine="1" fill="#FEFECE" filter="url(#fp7dsjjako3z0)" height="48" id="X" style="stroke:#A80036;stroke-width:1.5;" width="40" x="7" y="7" />
    <ellipse cx="22" cy="23" fill="#ADD1B2" rx="11" ry="11" style="stroke:#A80036;stroke-width:1.0;" />
    <path d="M24.3438,18.6719 C23.4063,18.2344 22.8125,18.0938 21.9375,18.0938 C19.3125,18.0938 17.3125,20.1719 17.3125,22.8906 L17.3125,24.0156 C17.3125,26.5938 19.4219,28.4844 22.3125,28.4844 C23.5313,28.4844 24.6875,28.1875 25.4375,27.6406 C26.0156,27.2344 26.3438,26.7813 26.3438,26.3906 C26.3438,25.9375 25.9531,25.5469 25.4844,25.5469 C25.2656,25.5469 25.0625,25.625 24.875,25.8125 C24.4219,26.2969 24.4219,26.2969 24.2344,26.3906 C23.8125,26.6563 23.125,26.7813 22.3594,26.7813 C20.3125,26.7813 19.0156,25.6875 19.0156,23.9844 L19.0156,22.8906 C19.0156,21.1094 20.2656,19.7969 22,19.7969 C22.5781,19.7969 23.1875,19.9531 23.6563,20.2031 C24.1406,20.4844 24.3125,20.7031 24.4063,21.1094 C24.4688,21.5156 24.5,21.6406 24.6406,21.7656 C24.7813,21.9063 25.0156,22.0156 25.2344,22.0156 C25.5,22.0156 25.7656,21.875 25.9375,21.6563 C26.0469,21.5 26.0781,21.3125 26.0781,20.8906 L26.0781,19.4688 C26.0781,19.0313 26.0625,18.9063 25.9688,18.75 C25.8125,18.4844 25.5313,18.3438 25.2344,18.3438 C24.9375,18.3438 24.7344,18.4375 24.5156,18.75 L24.3438,18.6719 Z " fill="#000000" />
    <text fill="#000000" font-family="sans-serif" font-size="12" lengthAdjust="spacing" textLength="8" x="36" y="27.1543">X</text>
    <line style="stroke:#A80036;stroke-width:1.5;" x1="8" x2="46" y1="39" y2="39" />
    <line style="stroke:#A80036;stroke-width:1.5;" x1="8" x2="46" y1="47" y2="47" /> <!--MD5=[1904c273551b1d3cd5b432df5b70c153]
  class Y-->
    <rect codeLine="2" fill="#FEFECE" filter="url(#fp7dsjjako3z0)" height="48" id="Y" style="stroke:#A80036;stroke-width:1.5;" width="39" x="7.5" y="115" />
    <ellipse cx="22.5" cy="131" fill="#ADD1B2" rx="11" ry="11" style="stroke:#A80036;stroke-width:1.0;" />
    <path d="M24.8438,126.6719 C23.9063,126.2344 23.3125,126.0938 22.4375,126.0938 C19.8125,126.0938 17.8125,128.1719 17.8125,130.8906 L17.8125,132.0156 C17.8125,134.5938 19.9219,136.4844 22.8125,136.4844 C24.0313,136.4844 25.1875,136.1875 25.9375,135.6406 C26.5156,135.2344 26.8438,134.7813 26.8438,134.3906 C26.8438,133.9375 26.4531,133.5469 25.9844,133.5469 C25.7656,133.5469 25.5625,133.625 25.375,133.8125 C24.9219,134.2969 24.9219,134.2969 24.7344,134.3906 C24.3125,134.6563 23.625,134.7813 22.8594,134.7813 C20.8125,134.7813 19.5156,133.6875 19.5156,131.9844 L19.5156,130.8906 C19.5156,129.1094 20.7656,127.7969 22.5,127.7969 C23.0781,127.7969 23.6875,127.9531 24.1563,128.2031 C24.6406,128.4844 24.8125,128.7031 24.9063,129.1094 C24.9688,129.5156 25,129.6406 25.1406,129.7656 C25.2813,129.9063 25.5156,130.0156 25.7344,130.0156 C26,130.0156 26.2656,129.875 26.4375,129.6563 C26.5469,129.5 26.5781,129.3125 26.5781,128.8906 L26.5781,127.4688 C26.5781,127.0313 26.5625,126.9063 26.4688,126.75 C26.3125,126.4844 26.0313,126.3438 25.7344,126.3438 C25.4375,126.3438 25.2344,126.4375 25.0156,126.75 L24.8438,126.6719 Z " fill="#000000" />
    <text fill="#000000" font-family="sans-serif" font-size="12" lengthAdjust="spacing" textLength="7" x="36.5" y="135.1543">Y</text>
    <line style="stroke:#A80036;stroke-width:1.5;" x1="8.5" x2="45.5" y1="147" y2="147" />
    <line style="stroke:#A80036;stroke-width:1.5;" x1="8.5" x2="45.5" y1="155" y2="155" /> <!--MD5=[ddba56da0fa3f7e2613d730fc101d463]
  link X to Y-->
    <path codeLine="4" d="M27,67 C27,67 27,90.6772 27,101.3638 " fill="none" id="X-Y" style="stroke:#A80036;stroke-width:1.0;" />
    <polygon fill="#A80036" points="27,114.6784,31,105.6784,27,109.6784,23,105.6784,27,114.6784" style="stroke:#A80036;stroke-width:1.0;" />
    <line style="stroke:#A80036;stroke-width:1.0;" x1="27" x2="27.0001" y1="109.6784" y2="101.6785" />
    <polygon fill="#A80036" points="27,55,23,61,27,67,31,61,27,55" style="stroke:#A80036;stroke-width:1.0;" /> <!--MD5=[8080951d7eb9bf2517b915f44b8763c8]
  @startuml
  class X
  class Y
  
  X *- -> Y
  @enduml
  
  PlantUML version 1.2021.6beta6(Unknown compile time)
  (GPL source distribution)
  Java Runtime: Java(TM) SE Runtime Environment
  JVM: Java HotSpot(TM) 64-Bit Server VM
  Default Encoding: UTF-8
  Language: en
  Country: US
  -->
  </g>
</svg>