<svg version="1.1" width="850" height="850" xmlns="http://www.w3.org/2000/svg">
    <path d="M20 50 l800 0 l0 800 l-800 0 z" id="fondo"/>
    <circle cx="112" cy="76" r="4" stroke="white" stroke-width="2" fill="white"/> 
    <circle cx="100" cy="135" r="4" stroke="white" stroke-width="2" fill="white"/>
    <circle cx="94" cy="179" r="4" stroke="white" stroke-width="2" fill="white"/>
    <circle cx="155" cy="153" r="4" stroke="white" stroke-width="2" fill="white"/>
    <line x1="15" y1="50"  x2="815" y2="50" stroke="white" stroke-width="2"/>
    <circle cx="265" cy="105" r="4" stroke="white" stroke-width="2" fill="white"/>
    <circle cx="385" cy="125" r="4" stroke="white" stroke-width="2" fill="white"/>
    <circle cx="345" cy="185" r="4" stroke="white" stroke-width="2" fill="white"/>
    <circle cx="444" cy="190" r="4" stroke="white" stroke-width="2" fill="white"/>
    <circle cx="512" cy="125" r="4" stroke="white" stroke-width="2" fill="white"/>
    <circle cx="550" cy="100" r="4" stroke="white" stroke-width="2" fill="white"/>  
    <circle cx="550" cy="195" r="4" stroke="white" stroke-width="2" fill="white"/>  
    <circle cx="583" cy="175" r="4" stroke="white" stroke-width="2" fill="white"/>
    <circle cx="500" cy="85" r="4" stroke="white" stroke-width="2" fill="white"/>
    <circle cx="490" cy="156" r="4" stroke="white" stroke-width="2" fill="white"/>
    <circle cx="440" cy="68" r="4" stroke="white" stroke-width="2" fill="white"/>
    <circle cx="600" cy="210" r="4" stroke="white" stroke-width="2" fill="white"/>
    <line x1="622" y1="15"  x2="622" y2="850" stroke="white" stroke-width="2"/>
    <circle cx="715" cy="79" r="4" stroke="white" stroke-width="2" fill="white"/>
    <circle cx="780" cy="125" r="4" stroke="white" stroke-width="2" fill="white"/>
    <circle cx="732" cy="188" r="4" stroke="white" stroke-width="2" fill="white"/>  
    <circle cx="788" cy="200" r="4" stroke="white" stroke-width="2" fill="white"/>  
    <circle cx="799" cy="85" r="4" stroke="white" stroke-width="2" fill="white"/>
    <line x1="620" y1="15"  x2="620" y2="850" stroke="white" stroke-width="2"/>
    <circle cx="88" cy="382" r="4" stroke="white" stroke-width="2" fill="white"/>
    <line x1="422" y1="15" x2="422" y2="850" stroke="white" stroke-width="2"/>
    <circle cx="300" cy="400" r="4" stroke="white" stroke-width="2" fill="white"/> 
    <circle cx="350" cy="350" r="4" stroke="white" stroke-width="2" fill="white"/>
    <circle cx="320" cy="315" r="4" stroke="white" stroke-width="2" fill="white"/>
    <circle cx="271" cy="348" r="4" stroke="white" stroke-width="2" fill="white"/>
    <circle cx="276" cy="276" r="4" stroke="white" stroke-width="2" fill="white"/>
    <circle cx="389" cy="310" r="4" stroke="white" stroke-width="2" fill="white"/>
    <circle cx="392" cy="270" r="4" stroke="white" stroke-width="2" fill="white"/>
    <line x1="420" y1="15" x2="420" y2="850" stroke="white" stroke-width="2" />
    <circle cx="553" cy="324" r="4" stroke="white" stroke-width="2" fill="white"/>
    <circle cx="605" cy="300" r="4" stroke="white" stroke-width="2" fill="white"/>
    <circle cx="590" cy="400" r="4" stroke="white" stroke-width="2" fill="white"/> 
    <circle cx="540" cy="365" r="4" stroke="white" stroke-width="2" fill="white" />
    <circle cx="501" cy="288" r="4" stroke="white" stroke-width="2" fill="white"/>
    <circle cx="486" cy="376" r="4" stroke="white" stroke-width="2" fill="white"/>
    <circle cx="459" cy="369" r="4" stroke="white" stroke-width="2" fill="white"/>
    <circle cx="462" cy="308" r="4" stroke="white" stroke-width="2" fill="white"/>
    <circle cx="453" cy="424" r="4" stroke="white" stroke-width="2" fill="white"/>
    <circle cx="488" cy="320" r="4" stroke="white" stroke-width="2" fill="white" />
    <circle cx="491" cy="341" r="4" stroke="white" stroke-width="2" fill="white"/>
    <circle cx="460" cy="280" r="4" stroke="white" stroke-width="2" fill="white"/>
    <line x1="222" y1="15"  x2="222" y2="850" stroke="white" stroke-width="2"/>
    <circle cx="54" cy="634" r="4" stroke="white" stroke-width="2" fill="white"/> 
    <circle cx="169" cy="565" r="4" stroke="white" stroke-width="2" fill="white"/>
    <circle cx="171" cy="490" r="4" stroke="white" stroke-width="2" fill="white"/>
    <circle cx="120" cy="500" r="4" stroke="white" stroke-width="2" fill="white"/>
    <line x1="220" y1="15"  x2="220" y2="850" stroke="white" stroke-width="2"/>
    <circle cx="279" cy="510" r="4" stroke="white" stroke-width="2" fill="white"/> 
    <circle cx="248" cy="565" r="4" stroke="white" stroke-width="2" fill="white"/>
    <circle cx="333" cy="528" r="4" stroke="white" stroke-width="2" fill="white"/>
    <circle cx="400" cy="616" r="4" stroke="white" stroke-width="2" fill="white"/>
    <circle cx="290" cy="610" r="4" stroke="white" stroke-width="2" fill="white"/> 
    <circle cx="338" cy="575" r="4" stroke="white" stroke-width="2" fill="white"/>
    <circle cx="373" cy="548" r="4" stroke="white" stroke-width="2" fill="white"/>
    <circle cx="400" cy="500" r="4" stroke="white" stroke-width="2" fill="white"/>
    <circle cx="350" cy="470" r="4" stroke="white" stroke-width="2" fill="white"/>
    <circle cx="323" cy="478" r="4" stroke="white" stroke-width="2" fill="white"/>
    <line x1="15" y1="52"  x2="815" y2="52" stroke="white" stroke-width="2"/>
    <circle cx="519" cy="600" r="4" stroke="white" stroke-width="2" fill="white"/> 
    <circle cx="548" cy="635" r="4" stroke="white" stroke-width="2" fill="white"/>
    <circle cx="588" cy="588" r="4" stroke="white" stroke-width="2" fill="white"/>
    <circle cx="550" cy="556" r="4" stroke="white" stroke-width="2" fill="white"/>
    <circle cx="529" cy="510" r="4" stroke="white" stroke-width="2" fill="white"/> 
    <circle cx="498" cy="475" r="4" stroke="white" stroke-width="2" fill="white"/>
    <circle cx="490" cy="548" r="4" stroke="white" stroke-width="2" fill="white"/>
    <circle cx="600" cy="500" r="4" stroke="white" stroke-width="2" fill="white" />
    <line x1="15" y1="252"  x2="815" y2="252" stroke="white" stroke-width="2"/>
    <circle cx="750" cy="360" r="4" stroke="white" stroke-width="2" fill="white"/>
    <circle cx="690" cy="346" r="4" stroke="white" stroke-width="2" fill="white"/>
    <line x1="15" y1="250"  x2="815" y2="250" stroke="white" stroke-width="2"/>
    <circle cx="723" cy="516" r="4" stroke="white" stroke-width="2" fill="white"/>
    <circle cx="749" cy="570" r="4" stroke="white" stroke-width="2" fill="white"/> 
    <circle cx="718" cy="485" r="4" stroke="white" stroke-width="2" fill="white"/>
    <circle cx="693" cy="558" r="4" stroke="white" stroke-width="2" fill="white"/>
    <circle cx="760" cy="496" r="4" stroke="white" stroke-width="2" fill="white"/>
    <circle cx="685" cy="538" r="4" stroke="white" stroke-width="2" fill="white"/>
    <circle cx="673" cy="569" r="4" stroke="white" stroke-width="2" fill="white"/>
    <circle cx="664" cy="519" r="4" stroke="white" stroke-width="2" fill="white"/>
    <circle cx="636" cy="596" r="4" stroke="white" stroke-width="2" fill="white"/>
    <circle cx="751" cy="604" r="4" stroke="white" stroke-width="2" fill="white"/>
    <circle cx="786" cy="580" r="4" stroke="white" stroke-width="2" fill="white"/> 
    <line x1="15" y1="50"  x2="815" y2="50" stroke="white" stroke-width="2"/>
    <line x1="15" y1="452"  x2="815" y2="452" stroke="white" stroke-width="2"/>
    <circle cx="77" cy="707" r="4" stroke="white" stroke-width="2" fill="white"/>
    <circle cx="133" cy="770" r="4" stroke="white" stroke-width="2" fill="white"/> 
    <circle cx="188" cy="735" r="4" stroke="white" stroke-width="2" fill="white"/>
    <circle cx="73" cy="758" r="4" stroke="white" stroke-width="2" fill="white"/>
    <circle cx="60" cy="776" r="4" stroke="white" stroke-width="2" fill="white"/>
    <circle cx="115" cy="808" r="4" stroke="white" stroke-width="2" fill="white"/>
    <circle cx="155" cy="753" r="4" stroke="white" stroke-width="2" fill="white" />
    <line x1="15" y1="450"  x2="815" y2="450" stroke="white" stroke-width="2"/>
    <circle cx="333" cy="770" r="4" stroke="white" stroke-width="2" fill="white"/> 
    <circle cx="358" cy="735" r="4" stroke="white" stroke-width="2" fill="white"/>
    <circle cx="313" cy="678" r="4" stroke="white" stroke-width="2" fill="white"/>
    <line x1="15" y1="652"  x2="815" y2="652" stroke="white" stroke-width="2"/>
    <circle cx="460" cy="776" r="4" stroke="white" stroke-width="2" fill="white"/>
    <circle cx="515" cy="738" r="4" stroke="white" stroke-width="2" fill="white"/>
    <circle cx="555" cy="723" r="4" stroke="white" stroke-width="2" fill="white"/>
    <circle cx="580" cy="673" r="4" stroke="white" stroke-width="2" fill="white"/>
    <circle cx="510" cy="813" r="4" stroke="white" stroke-width="2" fill="white"/>
    <circle cx="585" cy="790" r="4" stroke="white" stroke-width="2" fill="white"/>
    <line x1="15" y1="650"  x2="815" y2="650" stroke="white" stroke-width="2"/>
    <circle cx="776" cy="800" r="4" stroke="white" stroke-width="2" fill="white"/> 
    <circle cx="776" cy="735" r="4" stroke="white" stroke-width="2" fill="white"/>
    <circle cx="708" cy="785" r="4" stroke="white" stroke-width="2" fill="white"/> 
    <circle cx="745" cy="690" r="4" stroke="white" stroke-width="2" fill="white"/>
</svg>
