<?xml version="1.0" encoding="UTF-8" standalone="no"?>
<svg xmlns="http://www.w3.org/2000/svg" 
	xmlns:xlink="http://www.w3.org/1999/xlink" 
	contentScriptType="application/ecmascript" 
	contentStyleType="text/css" 
	height="614px" 
	preserveAspectRatio="none" 
	style="width:473px;height:614px;" 
	version="1.1" 
	viewBox="0 0 473 614" width="473px" 
	zoomAndPan="magnify">
	<defs>
		<filter height="300%" id="feypn5p0y75n0" width="300%" x="-1" y="-1">
		<feGaussianBlur result="blurOut" stdDeviation="2.0"/>
		<feColorMatrix in="blurOut" result="blurOut2" type="matrix" values="0 0 0 0 0 0 0 0 0 0 0 0 0 0 0 0 0 0 .4 0"/>
		<feOffset dx="4.0" dy="4.0" in="blurOut2" result="blurOut3"/>
		<feBlend in="SourceGraphic" in2="blurOut3" mode="normal"/>
		</filter>
	</defs>
	<g>
		<!--class Tipo-->
		<rect fill="#DC143C" filter="url(#feypn5p0y75n0)" height="48" id="Tipo" 
			style="stroke: #A80036; stroke-width: 1.5;" width="56" x="197.5" y="304"/>
		<rect fill="#DC143C" height="32" 
			style="stroke: #A80036; stroke-width: 1.5;" width="56" x="197.5" y="304"/>
		<ellipse cx="212.5" cy="320" fill="#ADD1B2" rx="11" ry="11" 
			style="stroke: #A80036; stroke-width: 1.0;"/>
		<path d="M215.2656,315.875 Q215.4219,315.6563 215.6094,315.5469 Q215.7969,315.4375 216.0156,315.4375 Q216.3906,315.4375 216.625,315.6953 Q216.8594,315.9531 216.8594,316.5625 L216.8594,318.0156 Q216.8594,318.625 216.625,318.8906 Q216.3906,319.1563 216.0156,319.1563 Q215.6719,319.1563 215.4688,318.9531 Q215.2656,318.7656 215.1563,318.25 Q215.1094,317.8906 214.9219,317.7031 Q214.5938,317.3281 213.9844,317.1094 Q213.375,316.8906 212.75,316.8906 Q211.9844,316.8906 211.3516,317.2188 Q210.7188,317.5469 210.2266,318.2969 Q209.7344,319.0469 209.7344,320.0781 L209.7344,321.1719 Q209.7344,322.4063 210.625,323.2266 Q211.5156,324.0469 213.1094,324.0469 Q214.0469,324.0469 214.7031,323.7969 Q215.0938,323.6406 215.5156,323.2031 Q215.7813,322.9375 215.9297,322.8594 Q216.0781,322.7813 216.2813,322.7813 Q216.6094,322.7813 216.8672,323.0391 Q217.125,323.2969 217.125,323.6406 Q217.125,323.9844 216.7813,324.3906 Q216.2813,324.9688 215.4844,325.2969 Q214.4063,325.75 213.1094,325.75 Q211.5938,325.75 210.3906,325.125 Q209.4063,324.625 208.7188,323.5547 Q208.0313,322.4844 208.0313,321.2031 L208.0313,320.0469 Q208.0313,318.7188 208.6484,317.5703 Q209.2656,316.4219 210.3594,315.8047 Q211.4531,315.1875 212.6875,315.1875 Q213.4219,315.1875 214.0703,315.3516 Q214.7188,315.5156 215.2656,315.875 Z "/>
		<text fill="#000000" font-family="sans-serif" font-size="12" lengthAdjust="spacingAndGlyphs" textLength="24" x="226.5" y="324.9102">Tipo</text>
		<line style="stroke: #A80036; stroke-width: 1.5;" x1="198.5" x2="252.5" y1="336" y2="336"/>
		<line style="stroke: #A80036; stroke-width: 1.5;" x1="198.5" x2="252.5" y1="344" y2="344"/>
		<!--class number-->
		<rect fill="#DC143C" filter="url(#feypn5p0y75n0)" height="103.3438" id="number" 
			style="stroke: #A80036; stroke-width: 1.5;" width="145" x="6" y="455"/>
		<rect fill="#DC143C" height="32" style="stroke: #A80036; stroke-width: 1.5;" width="145" x="6" y="455"/>
		<ellipse cx="52.25" cy="471" fill="#ADD1B2" rx="11" ry="11" style="stroke: #A80036; stroke-width: 1.0;"/>
		<path d="M55.0156,466.875 Q55.1719,466.6563 55.3594,466.5469 Q55.5469,466.4375 55.7656,466.4375 Q56.1406,466.4375 56.375,466.6953 Q56.6094,466.9531 56.6094,467.5625 L56.6094,469.0156 Q56.6094,469.625 56.375,469.8906 Q56.1406,470.1563 55.7656,470.1563 Q55.4219,470.1563 55.2188,469.9531 Q55.0156,469.7656 54.9063,469.25 Q54.8594,468.8906 54.6719,468.7031 Q54.3438,468.3281 53.7344,468.1094 Q53.125,467.8906 52.5,467.8906 Q51.7344,467.8906 51.1016,468.2188 Q50.4688,468.5469 49.9766,469.2969 Q49.4844,470.0469 49.4844,471.0781 L49.4844,472.1719 Q49.4844,473.4063 50.375,474.2266 Q51.2656,475.0469 52.8594,475.0469 Q53.7969,475.0469 54.4531,474.7969 Q54.8438,474.6406 55.2656,474.2031 Q55.5313,473.9375 55.6797,473.8594 Q55.8281,473.7813 56.0313,473.7813 Q56.3594,473.7813 56.6172,474.0391 Q56.875,474.2969 56.875,474.6406 Q56.875,474.9844 56.5313,475.3906 Q56.0313,475.9688 55.2344,476.2969 Q54.1563,476.75 52.8594,476.75 Q51.3438,476.75 50.1406,476.125 Q49.1563,475.625 48.4688,474.5547 Q47.7813,473.4844 47.7813,472.2031 L47.7813,471.0469 Q47.7813,469.7188 48.3984,468.5703 Q49.0156,467.4219 50.1094,466.8047 Q51.2031,466.1875 52.4375,466.1875 Q53.1719,466.1875 53.8203,466.3516 Q54.4688,466.5156 55.0156,466.875 Z "/>
		<text fill="#000000" font-family="sans-serif" font-size="12" font-weight="bold" lengthAdjust="spacingAndGlyphs" textLength="44" x="72.75" y="475.9102">number</text>
		<line style="stroke: #A80036; stroke-width: 1.5;" x1="7" x2="150" y1="487" y2="487"/>
		<text fill="#000000" font-family="sans-serif" font-size="11" lengthAdjust="spacingAndGlyphs" textLength="133" x="12" y="502.4189">valor decimal: 666, -1, 0.42,</text>
		<text fill="#000000" font-family="sans-serif" font-size="11" lengthAdjust="spacingAndGlyphs" textLength="74" x="12" y="516.2549">valor octal: 024</text>
		<text fill="#000000" font-family="sans-serif" font-size="11" lengthAdjust="spacingAndGlyphs" textLength="117" x="12" y="530.0908">valor hexadecimal: 0x42</text>
		<text fill="#000000" font-family="sans-serif" font-size="11" lengthAdjust="spacingAndGlyphs" textLength="9" x="12" y="543.9268">...</text>
		<line style="stroke: #A80036; stroke-width: 1.5;" x1="7" x2="150" y1="550.3438" y2="550.3438"/>
		<!--class string-->
		<rect fill="#DC143C" filter="url(#feypn5p0y75n0)" height="89.5078" id="string" style="stroke: #A80036; stroke-width: 1.5;" width="86" x="186.5" y="461.5"/><rect fill="#DC143C" height="32" style="stroke: #A80036; stroke-width: 1.5;" width="86" x="186.5" y="461.5"/><ellipse cx="210.95" cy="477.5" fill="#ADD1B2" rx="11" ry="11" style="stroke: #A80036; stroke-width: 1.0;"/><path d="M213.7156,473.375 Q213.8719,473.1563 214.0594,473.0469 Q214.2469,472.9375 214.4656,472.9375 Q214.8406,472.9375 215.075,473.1953 Q215.3094,473.4531 215.3094,474.0625 L215.3094,475.5156 Q215.3094,476.125 215.075,476.3906 Q214.8406,476.6563 214.4656,476.6563 Q214.1219,476.6563 213.9188,476.4531 Q213.7156,476.2656 213.6063,475.75 Q213.5594,475.3906 213.3719,475.2031 Q213.0438,474.8281 212.4344,474.6094 Q211.825,474.3906 211.2,474.3906 Q210.4344,474.3906 209.8016,474.7188 Q209.1688,475.0469 208.6766,475.7969 Q208.1844,476.5469 208.1844,477.5781 L208.1844,478.6719 Q208.1844,479.9063 209.075,480.7266 Q209.9656,481.5469 211.5594,481.5469 Q212.4969,481.5469 213.1531,481.2969 Q213.5438,481.1406 213.9656,480.7031 Q214.2313,480.4375 214.3797,480.3594 Q214.5281,480.2813 214.7313,480.2813 Q215.0594,480.2813 215.3172,480.5391 Q215.575,480.7969 215.575,481.1406 Q215.575,481.4844 215.2313,481.8906 Q214.7313,482.4688 213.9344,482.7969 Q212.8563,483.25 211.5594,483.25 Q210.0438,483.25 208.8406,482.625 Q207.8563,482.125 207.1688,481.0547 Q206.4813,479.9844 206.4813,478.7031 L206.4813,477.5469 Q206.4813,476.2188 207.0984,475.0703 Q207.7156,473.9219 208.8094,473.3047 Q209.9031,472.6875 211.1375,472.6875 Q211.8719,472.6875 212.5203,472.8516 Q213.1688,473.0156 213.7156,473.375 Z "/><text fill="#000000" font-family="sans-serif" font-size="12" font-weight="bold" lengthAdjust="spacingAndGlyphs" textLength="33" x="227.05" y="482.4102">string</text><line style="stroke: #A80036; stroke-width: 1.5;" x1="187.5" x2="271.5" y1="493.5" y2="493.5"/><text fill="#000000" font-family="sans-serif" font-size="11" lengthAdjust="spacingAndGlyphs" textLength="74" x="192.5" y="508.9189">valor: "cadena"</text><text fill="#000000" font-family="sans-serif" font-size="11" lengthAdjust="spacingAndGlyphs" textLength="70" x="192.5" y="522.7549">valor: 'cadena'</text><text fill="#000000" font-family="sans-serif" font-size="11" lengthAdjust="spacingAndGlyphs" textLength="9" x="192.5" y="536.5908">...</text><line style="stroke: #A80036; stroke-width: 1.5;" x1="187.5" x2="271.5" y1="543.0078" y2="543.0078"/><!--class boolean--><rect fill="#DC143C" filter="url(#feypn5p0y75n0)" height="75.6719" id="boolean" style="stroke: #A80036; stroke-width: 1.5;" width="77" x="325" y="468.5"/><rect fill="#DC143C" height="32" style="stroke: #A80036; stroke-width: 1.5;" width="77" x="325" y="468.5"/><ellipse cx="340" cy="484.5" fill="#ADD1B2" rx="11" ry="11" style="stroke: #A80036; stroke-width: 1.0;"/><path d="M342.7656,480.375 Q342.9219,480.1563 343.1094,480.0469 Q343.2969,479.9375 343.5156,479.9375 Q343.8906,479.9375 344.125,480.1953 Q344.3594,480.4531 344.3594,481.0625 L344.3594,482.5156 Q344.3594,483.125 344.125,483.3906 Q343.8906,483.6563 343.5156,483.6563 Q343.1719,483.6563 342.9688,483.4531 Q342.7656,483.2656 342.6563,482.75 Q342.6094,482.3906 342.4219,482.2031 Q342.0938,481.8281 341.4844,481.6094 Q340.875,481.3906 340.25,481.3906 Q339.4844,481.3906 338.8516,481.7188 Q338.2188,482.0469 337.7266,482.7969 Q337.2344,483.5469 337.2344,484.5781 L337.2344,485.6719 Q337.2344,486.9063 338.125,487.7266 Q339.0156,488.5469 340.6094,488.5469 Q341.5469,488.5469 342.2031,488.2969 Q342.5938,488.1406 343.0156,487.7031 Q343.2813,487.4375 343.4297,487.3594 Q343.5781,487.2813 343.7813,487.2813 Q344.1094,487.2813 344.3672,487.5391 Q344.625,487.7969 344.625,488.1406 Q344.625,488.4844 344.2813,488.8906 Q343.7813,489.4688 342.9844,489.7969 Q341.9063,490.25 340.6094,490.25 Q339.0938,490.25 337.8906,489.625 Q336.9063,489.125 336.2188,488.0547 Q335.5313,486.9844 335.5313,485.7031 L335.5313,484.5469 Q335.5313,483.2188 336.1484,482.0703 Q336.7656,480.9219 337.8594,480.3047 Q338.9531,479.6875 340.1875,479.6875 Q340.9219,479.6875 341.5703,479.8516 Q342.2188,480.0156 342.7656,480.375 Z "/><text fill="#000000" font-family="sans-serif" font-size="12" font-weight="bold" lengthAdjust="spacingAndGlyphs" textLength="45" x="354" y="489.4102">boolean</text><line style="stroke: #A80036; stroke-width: 1.5;" x1="326" x2="401" y1="500.5" y2="500.5"/><text fill="#000000" font-family="sans-serif" font-size="11" lengthAdjust="spacingAndGlyphs" textLength="49" x="331" y="515.9189">valor: true</text><text fill="#000000" font-family="sans-serif" font-size="11" lengthAdjust="spacingAndGlyphs" textLength="54" x="331" y="529.7549">valor: false</text><line style="stroke: #A80036; stroke-width: 1.5;" x1="326" x2="401" y1="536.1719" y2="536.1719"/><!--class Operador--><rect fill="#4169E1" filter="url(#feypn5p0y75n0)" height="48" id="Operador" style="stroke: #A80036; stroke-width: 1.5;" width="84" x="213.5" y="8"/><rect fill="#4169E1" height="32" style="stroke: #A80036; stroke-width: 1.5;" width="84" x="213.5" y="8"/><ellipse cx="228.5" cy="24" fill="#ADD1B2" rx="11" ry="11" style="stroke: #A80036; stroke-width: 1.0;"/><path d="M231.2656,19.875 Q231.4219,19.6563 231.6094,19.5469 Q231.7969,19.4375 232.0156,19.4375 Q232.3906,19.4375 232.625,19.6953 Q232.8594,19.9531 232.8594,20.5625 L232.8594,22.0156 Q232.8594,22.625 232.625,22.8906 Q232.3906,23.1563 232.0156,23.1563 Q231.6719,23.1563 231.4688,22.9531 Q231.2656,22.7656 231.1563,22.25 Q231.1094,21.8906 230.9219,21.7031 Q230.5938,21.3281 229.9844,21.1094 Q229.375,20.8906 228.75,20.8906 Q227.9844,20.8906 227.3516,21.2188 Q226.7188,21.5469 226.2266,22.2969 Q225.7344,23.0469 225.7344,24.0781 L225.7344,25.1719 Q225.7344,26.4063 226.625,27.2266 Q227.5156,28.0469 229.1094,28.0469 Q230.0469,28.0469 230.7031,27.7969 Q231.0938,27.6406 231.5156,27.2031 Q231.7813,26.9375 231.9297,26.8594 Q232.0781,26.7813 232.2813,26.7813 Q232.6094,26.7813 232.8672,27.0391 Q233.125,27.2969 233.125,27.6406 Q233.125,27.9844 232.7813,28.3906 Q232.2813,28.9688 231.4844,29.2969 Q230.4063,29.75 229.1094,29.75 Q227.5938,29.75 226.3906,29.125 Q225.4063,28.625 224.7188,27.5547 Q224.0313,26.4844 224.0313,25.2031 L224.0313,24.0469 Q224.0313,22.7188 224.6484,21.5703 Q225.2656,20.4219 226.3594,19.8047 Q227.4531,19.1875 228.6875,19.1875 Q229.4219,19.1875 230.0703,19.3516 Q230.7188,19.5156 231.2656,19.875 Z "/><text fill="#000000" font-family="sans-serif" font-size="12" lengthAdjust="spacingAndGlyphs" textLength="52" x="242.5" y="28.9102">Operador</text><line style="stroke: #A80036; stroke-width: 1.5;" x1="214.5" x2="296.5" y1="40" y2="40"/><line style="stroke: #A80036; stroke-width: 1.5;" x1="214.5" x2="296.5" y1="48" y2="48"/><!--class OperadorRelacional--><rect fill="#4169E1" filter="url(#feypn5p0y75n0)" height="83.8594" id="OperadorRelacional" style="stroke: #A80036; stroke-width: 1.5;" width="134" x="188.5" y="117"/><rect fill="#4169E1" height="40.1875" style="stroke: #A80036; stroke-width: 1.5;" width="134" x="188.5" y="117"/><ellipse cx="222.85" cy="137.0938" fill="#ADD1B2" rx="11" ry="11" style="stroke: #A80036; stroke-width: 1.0;"/><path d="M225.6156,132.9688 Q225.7719,132.75 225.9594,132.6406 Q226.1469,132.5313 226.3656,132.5313 Q226.7406,132.5313 226.975,132.7891 Q227.2094,133.0469 227.2094,133.6563 L227.2094,135.1094 Q227.2094,135.7188 226.975,135.9844 Q226.7406,136.25 226.3656,136.25 Q226.0219,136.25 225.8188,136.0469 Q225.6156,135.8594 225.5063,135.3438 Q225.4594,134.9844 225.2719,134.7969 Q224.9438,134.4219 224.3344,134.2031 Q223.725,133.9844 223.1,133.9844 Q222.3344,133.9844 221.7016,134.3125 Q221.0688,134.6406 220.5766,135.3906 Q220.0844,136.1406 220.0844,137.1719 L220.0844,138.2656 Q220.0844,139.5 220.975,140.3203 Q221.8656,141.1406 223.4594,141.1406 Q224.3969,141.1406 225.0531,140.8906 Q225.4438,140.7344 225.8656,140.2969 Q226.1313,140.0313 226.2797,139.9531 Q226.4281,139.875 226.6313,139.875 Q226.9594,139.875 227.2172,140.1328 Q227.475,140.3906 227.475,140.7344 Q227.475,141.0781 227.1313,141.4844 Q226.6313,142.0625 225.8344,142.3906 Q224.7563,142.8438 223.4594,142.8438 Q221.9438,142.8438 220.7406,142.2188 Q219.7563,141.7188 219.0688,140.6484 Q218.3813,139.5781 218.3813,138.2969 L218.3813,137.1406 Q218.3813,135.8125 218.9984,134.6641 Q219.6156,133.5156 220.7094,132.8984 Q221.8031,132.2813 223.0375,132.2813 Q223.7719,132.2813 224.4203,132.4453 Q225.0688,132.6094 225.6156,132.9688 Z "/><text fill="#000000" font-family="sans-serif" font-size="12" lengthAdjust="spacingAndGlyphs" textLength="52" x="244.65" y="134.457">Operador</text><text fill="#000000" font-family="sans-serif" font-size="12" lengthAdjust="spacingAndGlyphs" textLength="59" x="241.15" y="149.5508">Relacional</text><line style="stroke: #A80036; stroke-width: 1.5;" x1="189.5" x2="321.5" y1="157.1875" y2="157.1875"/><text fill="#000000" font-family="sans-serif" font-size="11" lengthAdjust="spacingAndGlyphs" textLength="96" x="194.5" y="172.6064">igualdad: ==, ===, !=</text><text fill="#000000" font-family="sans-serif" font-size="11" lengthAdjust="spacingAndGlyphs" textLength="122" x="194.5" y="186.4424">comparación: &gt;, &gt;=, &lt;, &lt;=</text><line style="stroke: #A80036; stroke-width: 1.5;" x1="189.5" x2="321.5" y1="192.8594" y2="192.8594"/><!--class OperadorAritmetico--><rect fill="#4169E1" filter="url(#feypn5p0y75n0)" height="97.6953" id="OperadorAritmetico" style="stroke: #A80036; stroke-width: 1.5;" width="127" x="35" y="279"/><rect fill="#4169E1" height="40.1875" style="stroke: #A80036; stroke-width: 1.5;" width="127" x="35" y="279"/><ellipse cx="68.45" cy="299.0938" fill="#ADD1B2" rx="11" ry="11" style="stroke: #A80036; stroke-width: 1.0;"/><path d="M71.2156,294.9688 Q71.3719,294.75 71.5594,294.6406 Q71.7469,294.5313 71.9656,294.5313 Q72.3406,294.5313 72.575,294.7891 Q72.8094,295.0469 72.8094,295.6563 L72.8094,297.1094 Q72.8094,297.7188 72.575,297.9844 Q72.3406,298.25 71.9656,298.25 Q71.6219,298.25 71.4188,298.0469 Q71.2156,297.8594 71.1063,297.3438 Q71.0594,296.9844 70.8719,296.7969 Q70.5438,296.4219 69.9344,296.2031 Q69.325,295.9844 68.7,295.9844 Q67.9344,295.9844 67.3016,296.3125 Q66.6688,296.6406 66.1766,297.3906 Q65.6844,298.1406 65.6844,299.1719 L65.6844,300.2656 Q65.6844,301.5 66.575,302.3203 Q67.4656,303.1406 69.0594,303.1406 Q69.9969,303.1406 70.6531,302.8906 Q71.0438,302.7344 71.4656,302.2969 Q71.7313,302.0313 71.8797,301.9531 Q72.0281,301.875 72.2313,301.875 Q72.5594,301.875 72.8172,302.1328 Q73.075,302.3906 73.075,302.7344 Q73.075,303.0781 72.7313,303.4844 Q72.2313,304.0625 71.4344,304.3906 Q70.3563,304.8438 69.0594,304.8438 Q67.5438,304.8438 66.3406,304.2188 Q65.3563,303.7188 64.6688,302.6484 Q63.9813,301.5781 63.9813,300.2969 L63.9813,299.1406 Q63.9813,297.8125 64.5984,296.6641 Q65.2156,295.5156 66.3094,294.8984 Q67.4031,294.2813 68.6375,294.2813 Q69.3719,294.2813 70.0203,294.4453 Q70.6688,294.6094 71.2156,294.9688 Z "/><text fill="#000000" font-family="sans-serif" font-size="12" lengthAdjust="spacingAndGlyphs" textLength="52" x="87.55" y="296.457">Operador</text><text fill="#000000" font-family="sans-serif" font-size="12" lengthAdjust="spacingAndGlyphs" textLength="54" x="86.55" y="311.5508">Aritmético</text><line style="stroke: #A80036; stroke-width: 1.5;" x1="36" x2="161" y1="319.1875" y2="319.1875"/><text fill="#000000" font-family="sans-serif" font-size="11" lengthAdjust="spacingAndGlyphs" textLength="58" x="41" y="334.6064">unarios: +, -</text><text fill="#000000" font-family="sans-serif" font-size="11" lengthAdjust="spacingAndGlyphs" textLength="115" x="41" y="348.4424">multiplicativos: **, *, /, %</text><text fill="#000000" font-family="sans-serif" font-size="11" lengthAdjust="spacingAndGlyphs" textLength="59" x="41" y="362.2783">aditivos: +, -</text><line style="stroke: #A80036; stroke-width: 1.5;" x1="36" x2="161" y1="368.6953" y2="368.6953"/><!--class OperadorLogico--><rect fill="#4169E1" filter="url(#feypn5p0y75n0)" height="97.6953" id="OperadorLogico" style="stroke: #A80036; stroke-width: 1.5;" width="84" x="378.5" y="279"/><rect fill="#4169E1" height="40.1875" style="stroke: #A80036; stroke-width: 1.5;" width="84" x="378.5" y="279"/><ellipse cx="393.5" cy="299.0938" fill="#ADD1B2" rx="11" ry="11" style="stroke: #A80036; stroke-width: 1.0;"/><path d="M396.2656,294.9688 Q396.4219,294.75 396.6094,294.6406 Q396.7969,294.5313 397.0156,294.5313 Q397.3906,294.5313 397.625,294.7891 Q397.8594,295.0469 397.8594,295.6563 L397.8594,297.1094 Q397.8594,297.7188 397.625,297.9844 Q397.3906,298.25 397.0156,298.25 Q396.6719,298.25 396.4688,298.0469 Q396.2656,297.8594 396.1563,297.3438 Q396.1094,296.9844 395.9219,296.7969 Q395.5938,296.4219 394.9844,296.2031 Q394.375,295.9844 393.75,295.9844 Q392.9844,295.9844 392.3516,296.3125 Q391.7188,296.6406 391.2266,297.3906 Q390.7344,298.1406 390.7344,299.1719 L390.7344,300.2656 Q390.7344,301.5 391.625,302.3203 Q392.5156,303.1406 394.1094,303.1406 Q395.0469,303.1406 395.7031,302.8906 Q396.0938,302.7344 396.5156,302.2969 Q396.7813,302.0313 396.9297,301.9531 Q397.0781,301.875 397.2813,301.875 Q397.6094,301.875 397.8672,302.1328 Q398.125,302.3906 398.125,302.7344 Q398.125,303.0781 397.7813,303.4844 Q397.2813,304.0625 396.4844,304.3906 Q395.4063,304.8438 394.1094,304.8438 Q392.5938,304.8438 391.3906,304.2188 Q390.4063,303.7188 389.7188,302.6484 Q389.0313,301.5781 389.0313,300.2969 L389.0313,299.1406 Q389.0313,297.8125 389.6484,296.6641 Q390.2656,295.5156 391.3594,294.8984 Q392.4531,294.2813 393.6875,294.2813 Q394.4219,294.2813 395.0703,294.4453 Q395.7188,294.6094 396.2656,294.9688 Z "/><text fill="#000000" font-family="sans-serif" font-size="12" lengthAdjust="spacingAndGlyphs" textLength="52" x="407.5" y="296.457">Operador</text><text fill="#000000" font-family="sans-serif" font-size="12" lengthAdjust="spacingAndGlyphs" textLength="37" x="415" y="311.5508">Lógico</text><line style="stroke: #A80036; stroke-width: 1.5;" x1="379.5" x2="461.5" y1="319.1875" y2="319.1875"/><text fill="#000000" font-family="sans-serif" font-size="11" lengthAdjust="spacingAndGlyphs" textLength="52" x="384.5" y="334.6064">negación: !</text><text fill="#000000" font-family="sans-serif" font-size="11" lengthAdjust="spacingAndGlyphs" textLength="72" x="384.5" y="348.4424">conjunción: &amp;&amp;</text><text fill="#000000" font-family="sans-serif" font-size="11" lengthAdjust="spacingAndGlyphs" textLength="62" x="384.5" y="362.2783">disyunción: ||</text><line style="stroke: #A80036; stroke-width: 1.5;" x1="379.5" x2="461.5" y1="368.6953" y2="368.6953"/><!--link Tipo to string--><path d="M226.48,372.261 C227.094,399.344 227.883,434.145 228.5,461.3885 " fill="none" id="Tipo-string" style="stroke: #A80036; stroke-width: 1.0;"/><polygon fill="none" points="219.478,372.228,226.023,352.074,233.474,371.911,219.478,372.228" style="stroke: #A80036; stroke-width: 1.0;"/><!--link Tipo to number--><path d="M193.373,367.575 C172.022,393.21 143.764,427.139 120.618,454.93 " fill="none" id="Tipo-number" style="stroke: #A80036; stroke-width: 1.0;"/><polygon fill="none" points="188.104,362.963,206.282,352.074,198.862,371.922,188.104,362.963" style="stroke: #A80036; stroke-width: 1.0;"/><!--link Tipo to boolean--><path d="M256.024,368.086 C269.633,385.509 285.866,406.284 300.5,425 C311.541,439.12 323.676,454.629 334.324,468.2325 " fill="none" id="Tipo-boolean" style="stroke: #A80036; stroke-width: 1.0;"/><polygon fill="none" points="250.475,372.354,243.681,352.283,261.509,363.736,250.475,372.354" style="stroke: #A80036; stroke-width: 1.0;"/><!--link Operador to OperadorRelacional--><path d="M255.5,76.634 C255.5,89.722 255.5,104.027 255.5,116.943 " fill="none" id="Operador-OperadorRelacional" style="stroke: #A80036; stroke-width: 1.0;"/><polygon fill="none" points="248.5,76.219,255.5,56.219,262.5,76.219,248.5,76.219" style="stroke: #A80036; stroke-width: 1.0;"/><!--link Operador to OperadorAritmetico--><path d="M210.869,69.65 C196.429,83.301 181.359,99.711 170.5,117 C138.624,167.752 118.907,234.33 108.339,278.783 " fill="none" id="Operador-OperadorAritmetico" style="stroke: #A80036; stroke-width: 1.0;"/><polygon fill="none" points="206.503,64.163,226.061,56.009,215.857,74.579,206.503,64.163" style="stroke: #A80036; stroke-width: 1.0;"/><!--link Operador to OperadorLogico--><path d="M299.224,69.965 C313.462,83.643 328.433,99.988 339.5,117 C372.635,167.934 395.402,234.473 408.171,278.867 " fill="none" id="Operador-OperadorLogico" style="stroke: #A80036; stroke-width: 1.0;"/><polygon fill="none" points="294.293,74.941,284.281,56.266,303.754,64.622,294.293,74.941" style="stroke: #A80036; stroke-width: 1.0;"/><!--link OperadorRelacional to Tipo--><path d="M248.084,201.281 C242.651,231.525 235.417,271.798 230.616,298.521 " fill="none" id="OperadorRelacional-Tipo" style="stroke: #A80036; stroke-width: 1.0;"/><polygon fill="#A80036" points="229.69,303.678,235.2186,295.5273,230.5742,298.7568,227.3447,294.1125,229.69,303.678" style="stroke: #A80036; stroke-width: 1.0;"/><text fill="#000000" font-family="sans-serif" font-size="13" lengthAdjust="spacingAndGlyphs" textLength="10" x="243.5" y="245.4951">in</text><text fill="#000000" font-family="sans-serif" font-size="13" lengthAdjust="spacingAndGlyphs" textLength="7" x="222.8582" y="293.3375">2</text><!--link OperadorRelacional to boolean--><path d="M268.42,201.332 C289.101,267.493 329.429,396.504 350.291,463.2441 " fill="none" id="OperadorRelacional-boolean" style="stroke: #A80036; stroke-width: 1.0;"/><polygon fill="#A80036" points="351.881,468.3313,353.0138,458.5478,350.3893,463.559,345.3781,460.9345,351.881,468.3313" style="stroke: #A80036; stroke-width: 1.0;"/><text fill="#000000" font-family="sans-serif" font-size="13" lengthAdjust="spacingAndGlyphs" textLength="18" x="323.5" y="333.4951">out</text><!--link OperadorAritmetico to number--><path d="M70.8434,377.265 C66.5621,386.837 62.8019,397.019 60.5,407 C57.3163,420.804 57.9835,435.801 60.3726,449.833 " fill="none" id="OperadorAritmetico-number" style="stroke: #A80036; stroke-width: 1.0;"/><polygon fill="#A80036" points="61.3267,454.954,63.6081,445.373,60.4096,450.0388,55.7438,446.8404,61.3267,454.954" style="stroke: #A80036; stroke-width: 1.0;"/><text fill="#000000" font-family="sans-serif" font-size="13" lengthAdjust="spacingAndGlyphs" textLength="10" x="61.5" y="421.4951">in</text><text fill="#000000" font-family="sans-serif" font-size="13" lengthAdjust="spacingAndGlyphs" textLength="22" x="35.3648" y="444.076">1..2</text><!--link OperadorAritmetico to number--><path d="M93.0349,377.229 C90.4973,399.624 87.4655,426.38 84.8289,449.647 " fill="none" id="OperadorAritmetico-number-1" style="stroke: #A80036; stroke-width: 1.0;"/><polygon fill="#A80036" points="84.2379,454.863,89.2256,446.3705,84.8008,449.8948,81.2765,445.4699,84.2379,454.863" style="stroke: #A80036; stroke-width: 1.0;"/><text fill="#000000" font-family="sans-serif" font-size="13" lengthAdjust="spacingAndGlyphs" textLength="18" x="90.5" y="421.4951">out</text><!--link OperadorLogico to boolean--><path d="M392.185,377.029 C387.366,386.707 382.845,396.988 379.5,407 C373.529,424.87 369.743,445.332 367.364,462.96 " fill="none" id="OperadorLogico-boolean" style="stroke: #A80036; stroke-width: 1.0;"/><polygon fill="#A80036" points="366.67,468.3337,371.7901,459.9204,367.3106,463.3749,363.856,458.8954,366.67,468.3337" style="stroke: #A80036; stroke-width: 1.0;"/><text fill="#000000" font-family="sans-serif" font-size="13" lengthAdjust="spacingAndGlyphs" textLength="10" x="380.5" y="421.4951">in</text><text fill="#000000" font-family="sans-serif" font-size="13" lengthAdjust="spacingAndGlyphs" textLength="22" x="343.2753" y="457.6663">1..2</text><!--link OperadorLogico to boolean--><path d="M408.503,377.142 C404.39,392.532 399.545,409.573 394.5,425 C390.391,437.566 385.429,451.039 380.692,463.2981 " fill="none" id="OperadorLogico-boolean-1" style="stroke: #A80036; stroke-width: 1.0;"/><polygon fill="#A80036" points="378.819,468.111,385.8097,461.1734,380.6317,463.4511,378.3539,458.2731,378.819,468.111" style="stroke: #A80036; stroke-width: 1.0;"/><text fill="#000000" font-family="sans-serif" font-size="13" lengthAdjust="spacingAndGlyphs" textLength="18" x="400.5" y="421.4951">out</text><rect fill="#DDDDDD" height="27.6094" rx="5" ry="5" style="stroke: #000000; stroke-width: 1.0;" width="213" x="133.5" y="576"/><text fill="#000000" font-family="sans-serif" font-size="14" lengthAdjust="spacingAndGlyphs" textLength="201" x="139.5" y="595.5332">añadir + como concatenación!!!</text><!--
@startuml
legend
añadir + como concatenación!!!
end legend

class Tipo #crimson
class "<b>number</b>" as number #crimson {
valor decimal: 666, -1, 0.42,
valor octal: 024
valor hexadecimal: 0x42
...
}
class "<b>string</b>" as string #crimson{
valor: "cadena"
valor: 'cadena'
...
}
class "<b>boolean</b>" as boolean #crimson {
valor: true
valor: false
}

Tipo <|-down- string
Tipo <|-down- number
Tipo <|-down- boolean

class Operador #royalblue
class "Operador\nRelacional" as OperadorRelacional #royalblue {
igualdad: ==, ===, !=
comparación: >, >=, <, <=
}
class "Operador\nAritmético" as OperadorAritmetico #royalblue {
unarios: +, -
multiplicativos: **, *, /, %
aditivos: +, -
}
class "Operador\nLógico" as OperadorLogico #royalblue {
negación: !
conjunción: &&
disyunción: ||
}

Operador <|-down- OperadorRelacional
Operador <|-down- OperadorAritmetico
Operador <|-down- OperadorLogico

OperadorRelacional -down-> "2" Tipo : in
OperadorRelacional -down-> boolean : out

OperadorAritmetico -down-> "1..2" number : in
OperadorAritmetico -down-> number : out

OperadorLogico -down-> "1..2" boolean : in
OperadorLogico -down-> boolean : out
@enduml

PlantUML version 1.2019.05(Sat Apr 20 18:45:36 CEST 2019)
(GPL source distribution)
Java Runtime: OpenJDK Runtime Environment
JVM: OpenJDK 64-Bit Server VM
Java Version: 1.8.0_222-b10
Operating System: Windows 10
OS Version: 10.0
Default Encoding: windows-1252
Language: es
Country: ES
--></g></svg>